{"title":"There Was a Crooked Man... (Western 1970)  Kirk Douglas, Henry F","uid":9291646,"size":483268955,"categoryP":"video","categoryS":"movies","magnet":"?xt=urn:btih:b557fc169372fb00a1820dde889531da2914a237&amp;dn=There+Was+a+Crooked+Man...+%28Western+1970%29++Kirk+Douglas%2C+Henry+F&amp;tr=udp%3A%2F%2Ftracker.openbittorrent.com%3A80&amp;tr=udp%3A%2F%2Fopen.demonii.com%3A1337&amp;tr=udp%3A%2F%2Ftracker.coppersurfer.tk%3A6969&amp;tr=udp%3A%2F%2Fexodus.desync.com%3A6969","seeders":2,"leechers":1,"uploader":"BurtonW","files":1,"time":1386104646,"description":" &lt;a href=&quot;http://www.imdb.com/title/tt0066448/?ref_=fn_al_tt_1&quot; rel=&quot;nofollow&quot; target=&quot;_NEW&quot;&gt;http://www.imdb.com/title/tt0066448/?ref_=fn_al_tt_1&lt;/a&gt;\n\n\nGood quality film.\n\n\nNo subtitles!\n\n\nStoryline:\n\nCharm, intelligence and success in criminal career doesn't prevent Paris Pitman Jr. to start doing ten years in prison, in the middle of the Arizona desert. However, those years should pass quickly because of a $500,000 loot previously stashed away. New idealistic warden would only make Pitman think of getting his fortune even sooner. He starts to manipulate everyone to achieve his goal.\n\n\nTechnical info:\n\n\nGeneral:\n\nComplete name                  : There Was a Crooked Man... (Western 1970)  Kirk Douglas, Henry Fonda &amp; Hume Cronyn.mp4\nFormat                         : MPEG-4\nFormat profile                 : Base Media / Version 2\nCodec ID                       : mp42\nFile size                      : 461 MiB\nDuration                       : 2h 3mn\nOverall bit rate mode          : Variable\nOverall bit rate               : 522 Kbps\nEncoded date                   : UTC 2013-09-23 18:34:20\nTagged date                    : UTC 2013-09-23 19:35:45\n\n\nVideo:\n\nID                             : 1\nFormat                         : AVC\nFormat/Info                    : Advanced Video Codec\nFormat profile                 : &lt;a class=&quot;__cf_email__&quot; href=&quot;/cdn-cgi/l/email-protection&quot; data-cfemail=&quot;d499b5bdba9498e0fae4&quot;&gt;[email&amp;#160;protected]&lt;/a&gt;&lt;script cf-hash='f9e31' type=&quot;text/javascript&quot;&gt;\n/* &lt;![CDATA[ */!function(){try{var t=&quot;currentScript&quot;in document?document.currentScript:function(){for(var t=document.getElementsByTagName(&quot;script&quot;),e=t.length;e--;)if(t[e].getAttribute(&quot;cf-hash&quot;))return t[e]}();if(t&amp;&amp;t.previousSibling){var e,r,n,i,c=t.previousSibling,a=c.getAttribute(&quot;data-cfemail&quot;);if(a){for(e=&quot;&quot;,r=parseInt(a.substr(0,2),16),n=2;a.length-n;n+=2)i=parseInt(a.substr(n,2),16)^r,e+=String.fromCharCode(i);e=document.createTextNode(e),c.parentNode.replaceChild(e,c)}}}catch(u){}}();/* ]]&gt; */&lt;/script&gt;\nFormat settings, CABAC         : Yes\nFormat settings, ReFrames      : 5 frames\nCodec ID                       : avc1\nCodec ID/Info                  : Advanced Video Coding\nDuration                       : 2h 3mn\nBit rate mode                  : Variable\nBit rate                       : 368 Kbps\nWidth                          : 640 pixels\nHeight                         : 272 pixels\nDisplay aspect ratio           : 2.35:1\nFrame rate mode                : Constant\nFrame rate                     : 24.000 fps\nColor space                    : YUV\nChroma subsampling             : 4:2:0\nBit depth                      : 8 bits\nScan type                      : Progressive\nBits/(Pixel*Frame)             : 0.088\nStream size                    : 325 MiB (71%)\nWriting library                : x264 core 130 r2273 b3065e6\nEncoding settings              : Deleted\nEncoded date                   : UTC 2013-09-23 18:34:20\nTagged date                    : UTC 2013-09-23 19:35:45\nColor primaries                : BT.601 NTSC\nTransfer characteristics       : BT.709\nMatrix coefficients            : BT.601\n\nAudio:\n\nID                             : 2\nFormat                         : AAC\nFormat/Info                    : Advanced Audio Codec\nFormat profile                 : LC\nCodec ID                       : 40\nDuration                       : 2h 3mn\nBit rate mode                  : Variable\nBit rate                       : 150 Kbps\nMaximum bit rate               : 196 Kbps\nChannel(s)                     : 1 channel\nChannel positions              : Front: C\nSampling rate                  : 48.0 KHz\nCompression mode               : Lossy\nDelay relative to video        : 83ms\nStream size                    : 132 MiB (29%)\nEncoded date                   : UTC 2013-09-23 18:34:20\nTagged date                    : UTC 2013-09-23 19:35:44\n\n","torrent":{"xt":"urn:btih:b557fc169372fb00a1820dde889531da2914a237","amp;dn":"There+Was+a+Crooked+Man...+%28Western+1970%29++Kirk+Douglas%2C+Henry+F","amp;tr":["udp%3A%2F%2Ftracker.openbittorrent.com%3A80","udp%3A%2F%2Fopen.demonii.com%3A1337","udp%3A%2F%2Ftracker.coppersurfer.tk%3A6969","udp%3A%2F%2Fexodus.desync.com%3A6969"],"infoHash":"b557fc169372fb00a1820dde889531da2914a237","infoHashBuffer":{"type":"Buffer","data":[181,87,252,22,147,114,251,0,161,130,13,222,136,149,49,218,41,20,162,55]},"announce":[],"urlList":[]}}